<?xml version="1.0" standalone="no"?>
<!DOCTYPE svg PUBLIC "-//W3C//DTD SVG 20010904//EN"
 "http://www.w3.org/TR/2001/REC-SVG-20010904/DTD/svg10.dtd">
<svg version="1.0" xmlns="http://www.w3.org/2000/svg"
 width="1280.000000pt" height="1154.000000pt" viewBox="0 0 1280.000000 1154.000000"
 preserveAspectRatio="xMidYMid meet">
<metadata>
Created by potrace 1.15, written by Peter Selinger 2001-2017
</metadata>
<g transform="translate(0.000000,1154.000000) scale(0.100000,-0.100000)"
fill="#000000" stroke="none">
<path d="M6228 11494 c-14 -32 -18 -58 -15 -81 7 -42 34 -86 47 -78 14 9 13
205 -1 205 -5 0 -19 -21 -31 -46z"/>
<path d="M6151 11122 c-27 -51 91 -168 134 -132 28 23 16 80 -28 128 -26 28
-91 31 -106 4z"/>
<path d="M6248 10853 c-8 -10 -18 -26 -21 -35 -7 -21 -31 -23 -76 -7 -39 14
-46 8 -30 -23 33 -63 104 -139 152 -163 52 -26 157 -36 157 -15 0 6 -8 10 -17
10 -31 0 -120 47 -137 71 -23 34 -20 79 9 122 14 20 23 42 20 47 -10 16 -41
12 -57 -7z"/>
<path d="M6188 10533 c-27 -6 -23 -14 34 -66 29 -27 49 -46 43 -44 -5 3 -34
12 -62 20 -70 21 -70 6 0 -69 l54 -58 29 21 c39 28 164 158 164 171 0 10 -53
17 -185 25 -33 2 -68 2 -77 0z"/>
<path d="M6572 10415 c-17 -8 -60 -34 -95 -58 -69 -50 -139 -87 -161 -87 -20
0 -27 -13 -40 -74 -15 -69 -43 -73 -111 -17 -27 22 -52 38 -57 35 -16 -10 -8
-72 13 -98 12 -15 43 -38 70 -52 28 -14 53 -32 56 -41 9 -24 -11 -48 -43 -50
-16 0 -35 -2 -41 -2 -7 -1 -24 -23 -38 -50 -30 -61 -67 -91 -111 -91 -23 0
-38 -7 -53 -26 -45 -58 -15 -177 69 -279 28 -33 50 -64 50 -68 0 -5 -12 -6
-27 -2 -59 17 -75 12 -87 -24 -17 -48 -40 -61 -110 -61 -72 0 -130 25 -132 55
-2 34 -23 64 -66 95 -44 32 -68 38 -68 17 0 -19 44 -136 73 -194 15 -28 44
-72 67 -98 35 -40 40 -53 40 -94 0 -57 23 -83 116 -129 68 -34 124 -77 124
-96 0 -6 25 -41 55 -78 30 -36 51 -68 48 -72 -10 -10 -135 -7 -194 4 -40 8
-59 18 -76 39 -25 32 -114 91 -210 140 -81 41 -94 40 -86 -1 10 -55 35 -87 79
-104 44 -17 59 -38 69 -101 13 -77 13 -76 61 -69 24 3 44 3 44 0 0 -3 -16 -42
-36 -87 -20 -45 -38 -105 -41 -134 l-6 -52 -44 -7 c-78 -12 -223 15 -223 42 0
29 -117 114 -134 97 -3 -3 -3 -38 1 -77 5 -60 2 -78 -15 -111 -37 -73 -102
-114 -212 -135 -161 -31 -125 -50 100 -50 96 -1 195 -6 220 -12 74 -17 104
-14 143 16 33 25 37 26 37 9 0 -20 -24 -60 -50 -81 -27 -23 -182 -98 -343
-167 -155 -67 -202 -98 -195 -133 2 -8 11 -20 20 -25 17 -12 32 -6 95 34 l33
21 10 -27 c10 -27 12 -27 66 -21 56 6 134 37 154 61 6 7 13 24 15 36 8 40 41
59 104 59 68 0 117 -23 148 -69 32 -47 30 -68 -7 -76 -23 -5 -30 -12 -30 -29
0 -29 22 -49 80 -74 65 -28 81 -51 89 -127 6 -55 5 -65 -8 -65 -41 1 -193 41
-256 67 -144 62 -331 91 -380 59 -22 -14 -25 -24 -25 -70 0 -29 3 -68 6 -85 6
-29 10 -31 34 -26 19 4 43 -3 86 -26 112 -61 136 -70 191 -79 55 -9 93 -32 93
-55 0 -19 24 -25 91 -25 32 0 79 -5 104 -12 43 -12 46 -14 43 -43 -2 -21 -8
-29 -18 -27 -68 16 -78 15 -91 -14 -19 -39 -58 -45 -198 -28 -64 7 -122 14
-128 14 -8 0 -13 13 -13 33 0 42 -20 61 -133 122 -106 57 -218 139 -347 253
-123 108 -137 116 -109 62 17 -32 20 -51 15 -88 -6 -46 -5 -48 24 -59 26 -10
30 -16 30 -50 0 -21 -5 -57 -10 -80 -14 -58 0 -93 38 -93 15 0 60 16 101 35
40 19 77 33 81 30 5 -3 4 -20 -1 -38 -14 -50 -11 -76 18 -132 30 -61 26 -80
-22 -100 -44 -19 -86 -19 -174 0 -93 19 -101 15 -101 -49 0 -66 26 -120 60
-124 74 -9 99 -35 155 -165 28 -65 42 -87 56 -87 10 0 50 27 89 60 38 34 70
57 70 52 0 -5 -18 -48 -40 -95 -22 -47 -40 -90 -40 -96 0 -23 20 -9 65 44 26
30 51 55 56 55 5 0 9 -15 9 -32 0 -45 20 -80 53 -96 32 -15 33 -22 8 -53 -17
-21 -26 -23 -93 -21 -70 3 -79 0 -151 -38 -45 -23 -90 -40 -109 -40 -21 0 -65
18 -118 48 -109 61 -140 74 -185 75 -37 1 -59 -14 -69 -48 -9 -30 6 -45 60
-59 49 -13 55 -21 43 -66 -3 -12 4 -14 31 -11 83 10 124 7 128 -11 3 -18 -33
-61 -58 -70 -20 -6 -4 -41 49 -102 23 -26 41 -56 41 -67 0 -11 -13 -40 -30
-64 -42 -61 -40 -68 20 -63 38 4 61 14 97 42 27 21 50 33 56 27 14 -14 -11
-89 -42 -123 -27 -31 -30 -31 -67 -20 -22 6 -103 49 -181 95 -77 46 -165 91
-194 100 -47 16 -54 16 -68 2 -23 -23 -18 -110 9 -173 26 -61 61 -92 101 -92
43 0 43 -15 -2 -51 -51 -40 -40 -49 59 -49 l73 0 -3 -27 c-6 -54 -40 -65 -220
-73 -178 -9 -192 -11 -288 -60 -38 -20 -81 -34 -105 -35 -36 -1 -40 -4 -43
-29 -5 -39 15 -82 47 -102 l26 -18 -25 -7 c-14 -4 -39 -7 -56 -8 -46 -1 -84
-35 -84 -76 0 -49 18 -59 97 -50 36 4 73 9 81 12 12 5 12 3 1 -15 -18 -29 1
-65 91 -168 109 -124 161 -242 109 -252 -9 -1 -92 47 -185 109 -194 128 -252
159 -293 159 -57 0 -42 -44 44 -123 28 -25 35 -37 23 -37 -9 0 -24 -10 -32
-22 -17 -24 -22 -103 -7 -112 4 -3 23 6 42 20 74 55 116 4 63 -76 -31 -46 -24
-60 29 -60 26 0 38 -9 91 -71 9 -11 29 -19 44 -19 40 0 65 -21 60 -51 -2 -19
-13 -27 -52 -39 -45 -15 -66 -33 -108 -92 -21 -31 -88 -51 -138 -43 -65 11
-81 55 -20 55 45 0 43 14 -5 49 -57 41 -64 52 -26 45 64 -13 115 23 151 104
11 24 20 46 20 48 0 24 -139 -45 -236 -117 -98 -72 -328 -148 -463 -152 -51
-2 -56 0 -59 21 -2 14 -19 33 -43 48 -31 19 -39 29 -34 45 4 12 -2 33 -15 55
-12 19 -21 36 -19 38 2 1 30 8 61 15 52 11 108 49 108 72 0 23 -61 71 -110 88
l-55 20 63 0 c78 1 364 48 412 68 30 12 33 16 18 24 -12 7 -54 6 -124 -2 -103
-11 -174 -7 -174 10 0 15 24 29 69 41 47 12 91 49 91 76 0 10 -7 26 -16 35
-15 17 -15 20 2 45 47 67 54 80 49 101 -8 33 4 52 46 74 22 11 39 23 39 27 0
4 -15 17 -32 27 l-33 20 38 3 c21 2 41 10 44 17 7 19 -32 82 -63 102 -33 21
-49 12 -79 -46 -25 -51 -49 -71 -82 -71 -17 0 -69 -33 -160 -101 -35 -27 -45
-30 -58 -19 -12 10 -27 9 -80 -4 -35 -9 -78 -16 -94 -16 -41 0 -138 37 -164
63 -19 19 -19 20 -2 34 11 7 37 13 59 13 56 1 113 29 166 84 24 25 52 46 61
46 23 0 105 36 113 49 5 7 -3 11 -18 11 -32 0 -66 32 -66 63 0 43 30 113 70
161 22 27 40 51 40 53 0 3 -7 11 -16 18 -14 10 -15 17 -4 49 6 21 10 39 7 42
-4 5 -74 -47 -276 -206 -167 -130 -276 -184 -325 -158 -49 26 -41 51 10 36 31
-8 39 -7 58 11 11 11 42 29 67 39 53 23 58 29 79 92 13 39 22 49 69 73 31 15
71 27 93 27 40 0 48 10 23 30 -26 21 -17 41 50 111 55 57 65 72 65 103 0 29 4
36 19 36 30 0 34 17 8 35 -31 20 -40 16 -167 -70 -149 -101 -308 -165 -412
-165 -42 0 -48 3 -48 20 0 39 152 180 193 180 38 0 216 179 217 218 0 16 9 18
-113 -28 -171 -64 -372 -105 -401 -81 -16 14 -6 65 17 89 12 11 19 10 48 -6
62 -36 160 -40 172 -8 3 8 1 49 -5 92 -12 92 -4 104 73 104 56 0 95 13 127 42
28 27 28 34 -4 63 l-27 25 31 6 c18 4 29 10 27 15 -6 9 -62 -7 -167 -50 -69
-28 -108 -32 -108 -11 0 4 5 21 11 39 8 24 24 38 58 54 32 15 47 29 49 45 2
15 19 30 52 47 27 14 56 35 64 47 17 24 22 88 7 88 -6 0 -53 -29 -105 -64 -52
-36 -114 -70 -138 -76 -24 -7 -86 -27 -138 -46 -92 -33 -150 -43 -150 -26 0 5
22 28 49 50 50 43 64 69 95 183 19 68 49 109 81 109 17 0 30 11 47 42 17 32
38 49 83 73 43 22 60 36 60 50 0 32 -39 30 -90 -5 -63 -43 -305 -160 -332
-160 -19 0 -23 5 -23 34 0 48 9 66 38 77 21 8 24 14 19 44 -5 32 -4 35 19 35
37 0 75 23 122 74 47 51 57 92 20 81 -13 -4 -43 -19 -68 -33 -43 -24 -127 -67
-160 -82 -8 -4 -20 -21 -26 -38 -18 -55 -28 -58 -82 -23 -58 37 -62 37 -62 10
0 -35 20 -60 65 -80 74 -33 79 -63 10 -71 -22 -2 -37 -14 -58 -45 -18 -27 -38
-45 -55 -49 -15 -3 -37 -7 -50 -10 -62 -13 -47 -117 31 -202 26 -30 47 -56 45
-58 -3 -2 -18 0 -35 5 -35 10 -63 -2 -63 -28 0 -24 -19 -31 -85 -31 -67 0
-105 14 -105 38 0 29 -87 101 -103 86 -16 -16 53 -155 105 -212 31 -34 39 -50
35 -69 -6 -34 16 -55 108 -98 50 -24 80 -45 89 -63 8 -15 28 -40 45 -56 58
-56 44 -63 -88 -46 -60 8 -79 15 -109 41 -35 31 -184 109 -209 109 -16 0 -16
-40 0 -61 7 -9 30 -25 52 -35 33 -16 42 -26 50 -59 15 -59 23 -67 56 -60 16 4
29 4 29 0 0 -3 -12 -28 -26 -56 -14 -28 -29 -70 -33 -93 l-7 -41 -98 1 c-98 2
-99 2 -123 33 -24 31 -71 61 -94 61 -8 0 -9 -13 -5 -44 15 -96 -43 -157 -171
-183 -43 -8 -82 -19 -86 -23 -13 -11 83 -20 218 -19 66 0 132 -4 147 -10 21
-8 34 -6 64 10 45 23 44 22 44 6 0 -36 -94 -87 -312 -167 -116 -42 -163 -71
-155 -93 6 -19 46 -20 72 -3 31 20 45 20 60 -1 11 -14 19 -15 70 -5 69 14 102
34 115 68 22 57 130 56 188 -2 37 -37 38 -57 4 -62 -14 -2 -22 -11 -22 -23 0
-15 15 -27 54 -44 63 -28 86 -56 86 -105 l0 -36 -72 11 c-40 7 -116 27 -168
45 -68 23 -120 34 -182 38 -105 6 -118 -1 -118 -63 0 -59 7 -73 33 -68 13 3
55 -11 97 -31 41 -20 90 -38 110 -42 70 -11 79 -14 85 -34 5 -17 15 -20 63
-20 82 0 132 -16 132 -42 0 -18 -4 -19 -37 -13 -31 6 -39 3 -54 -17 -20 -26
-53 -28 -191 -14 -72 7 -78 9 -78 31 0 29 -10 37 -110 85 -88 44 -160 90 -280
180 -99 75 -106 78 -85 46 11 -17 16 -39 13 -62 -4 -31 -1 -37 20 -45 22 -9
23 -13 20 -82 -3 -70 -2 -72 22 -75 14 -1 52 8 85 22 33 13 63 22 67 20 4 -3
2 -18 -4 -34 -8 -25 -6 -37 11 -70 27 -51 26 -66 -1 -81 -19 -10 -111 -9 -202
4 -31 4 -41 -24 -25 -74 11 -35 20 -45 44 -52 65 -19 80 -33 118 -105 22 -41
45 -72 53 -72 8 0 38 18 67 39 28 22 53 38 54 37 2 -2 -10 -29 -27 -61 -44
-84 -38 -98 19 -41 l48 47 7 -41 c5 -30 13 -43 31 -52 14 -6 25 -17 25 -23 0
-24 -28 -35 -86 -33 -46 1 -73 -5 -118 -25 -78 -36 -112 -34 -199 10 -85 43
-131 55 -163 42 -36 -13 -33 -57 4 -65 62 -14 64 -15 58 -40 -6 -23 -6 -23 59
-17 56 5 65 4 65 -10 0 -9 -11 -24 -25 -33 -33 -22 -32 -37 10 -83 40 -44 43
-63 15 -98 -11 -14 -20 -30 -20 -34 0 -18 65 -8 107 17 25 14 47 23 50 20 11
-10 -8 -58 -33 -82 -30 -31 -30 -31 -209 57 -155 77 -199 86 -209 44 -17 -68
44 -165 103 -165 40 0 39 -11 -4 -34 -19 -10 -32 -23 -29 -27 3 -5 34 -9 70
-9 49 0 64 -3 64 -14 0 -11 -23 -43 -33 -47 -1 0 -69 -4 -152 -9 -136 -7 -157
-11 -223 -39 -40 -18 -83 -31 -95 -29 -34 5 -36 -44 -3 -77 14 -14 26 -28 26
-30 0 -3 -17 -5 -38 -5 -51 0 -84 -24 -80 -58 3 -27 4 -27 76 -26 51 1 71 -1
63 -9 -15 -15 9 -54 69 -112 85 -81 129 -162 99 -180 -5 -4 -56 19 -112 51
-195 110 -242 133 -274 134 -46 0 -42 -20 13 -69 28 -24 40 -41 31 -41 -18 0
-40 -59 -31 -84 6 -15 9 -14 39 4 63 39 92 16 56 -43 -12 -19 -21 -37 -21 -40
0 -3 18 -8 40 -12 27 -4 44 -14 52 -28 15 -29 27 -37 59 -37 15 0 32 -7 39
-15 17 -21 -1 -41 -45 -49 -23 -5 -43 -18 -61 -41 -48 -64 -128 -70 -191 -15
-29 26 -37 29 -50 18 -19 -16 -13 -87 12 -124 15 -23 21 -26 56 -20 54 9 76
-6 103 -67 43 -97 96 -127 153 -90 26 17 27 17 19 -2 -4 -11 -10 -31 -13 -46
-5 -25 -3 -25 50 -25 47 1 61 -4 98 -32 103 -77 135 -92 232 -107 29 -5 37
-10 35 -23 -7 -36 -109 -62 -247 -62 -70 0 -92 4 -121 21 -77 47 -420 113
-408 78 3 -8 46 -48 98 -89 l93 -75 -84 -18 c-122 -26 -122 -26 -40 -58 100
-38 145 -83 109 -105 -7 -5 -36 -11 -66 -15 -59 -8 -84 -23 -75 -45 8 -21 57
-17 139 11 56 19 78 23 98 15 52 -19 24 -37 -97 -65 -98 -22 -127 -39 -127
-75 0 -17 14 -56 30 -87 17 -31 30 -67 30 -81 0 -24 1 -25 60 -19 51 6 62 4
77 -12 10 -11 32 -21 48 -23 25 -2 31 -8 33 -31 3 -21 11 -31 33 -39 37 -13
37 -33 -1 -68 -87 -81 -247 -48 -396 82 -64 56 -103 78 -137 78 -64 0 -41
-140 37 -227 23 -26 41 -53 39 -60 -2 -6 -26 -26 -54 -43 -27 -18 -49 -36 -49
-41 0 -12 30 -17 120 -22 92 -5 123 -20 175 -88 26 -35 51 -56 71 -61 17 -4
39 -17 49 -28 23 -25 75 -26 105 -2 l21 17 -20 27 c-12 14 -21 29 -21 32 0 13
91 6 96 -7 7 -20 -33 -121 -56 -142 -16 -14 -40 -18 -130 -19 -64 0 -111 -5
-112 -11 -6 -21 105 -48 199 -49 80 -1 94 -4 107 -21 14 -20 15 -20 83 4 61
21 80 23 154 17 46 -4 161 -12 256 -19 95 -7 175 -16 179 -19 14 -14 -9 -27
-88 -48 -89 -24 -133 -44 -187 -84 -20 -15 -55 -28 -83 -32 -26 -4 -56 -13
-65 -20 -17 -13 -17 -15 2 -29 16 -12 34 -14 86 -9 62 6 68 5 78 -15 15 -26
47 -27 61 -2 5 11 10 41 10 67 l0 47 58 -61 c54 -59 60 -62 104 -62 58 0 67
-13 32 -45 l-26 -25 53 3 54 2 -3 -34 c-3 -29 -1 -33 15 -26 102 44 133 43
142 -1 5 -31 21 -44 53 -44 30 0 72 35 83 70 9 27 50 40 129 40 48 0 79 5 92
15 10 8 41 15 69 15 28 0 82 5 120 11 169 24 151 25 163 -12 28 -89 37 -203
37 -464 -1 -148 -4 -289 -8 -313 l-7 -42 118 0 c161 0 158 -3 133 130 -73 381
-101 698 -65 734 18 19 76 21 159 5 56 -10 60 -9 77 11 9 12 20 38 23 58 16
99 44 105 92 22 55 -97 74 -114 143 -129 78 -18 121 -16 161 5 41 20 29 31
-53 50 -35 8 -78 24 -96 34 -33 21 -35 40 -4 40 33 0 45 15 32 40 -6 12 -9 24
-7 27 7 7 65 -25 122 -67 87 -65 110 -73 166 -60 27 7 49 15 49 20 0 4 -25 10
-55 12 -59 5 -82 18 -70 39 6 9 45 11 154 7 105 -4 136 -2 111 5 -19 5 -57 16
-85 23 -62 17 -118 50 -112 67 2 8 36 14 93 18 49 3 108 11 132 18 24 6 68 11
99 9 56 -3 56 -3 65 29 5 18 18 38 31 45 14 7 86 13 192 15 94 3 176 6 184 9
11 3 9 10 -9 29 -25 27 -30 73 -9 86 8 5 26 6 41 3 33 -7 60 7 116 58 24 22
59 46 78 54 28 12 35 21 40 55 8 51 40 90 94 114 39 18 45 18 148 1 59 -9 181
-21 272 -25 162 -9 227 -21 215 -41 -10 -17 -57 -37 -125 -55 -82 -21 -153
-56 -201 -100 -50 -45 -70 -55 -136 -65 -61 -10 -83 -23 -83 -50 0 -26 24 -32
122 -31 81 1 88 0 99 -21 42 -79 89 -27 89 99 1 56 3 65 13 51 7 -9 30 -40 51
-70 54 -76 95 -102 145 -94 70 11 77 -34 14 -83 l-28 -21 40 5 c22 4 49 8 61
10 11 3 28 -1 37 -8 14 -10 15 -18 7 -46 -5 -19 -8 -37 -5 -39 3 -3 31 7 64
22 91 40 127 35 137 -22 9 -50 21 -62 59 -62 41 0 80 31 95 74 6 18 22 44 36
57 23 22 36 24 131 27 85 3 112 8 132 23 20 14 55 21 151 28 69 6 149 17 178
26 94 28 102 16 129 -184 13 -98 17 -204 18 -476 0 -192 -3 -394 -8 -448 l-8
-98 150 3 c206 4 194 -14 153 236 -66 406 -95 688 -90 861 4 172 19 182 206
144 81 -16 84 -15 103 3 12 13 25 50 35 104 27 144 50 143 125 -3 56 -110 83
-147 109 -147 9 0 45 -10 79 -21 56 -19 70 -20 113 -11 55 13 98 38 98 58 0 7
-19 18 -42 24 -151 39 -208 66 -208 99 0 14 10 21 35 25 37 7 45 28 25 66 -14
26 3 34 37 16 15 -8 68 -49 117 -90 50 -42 105 -80 123 -85 33 -9 86 0 128 22
19 10 19 10 0 18 -11 4 -39 8 -62 8 -29 1 -50 8 -70 25 l-28 24 30 12 c29 12
230 8 345 -5 32 -4 14 4 -60 28 -150 47 -210 81 -210 118 0 22 31 29 125 27
39 0 96 7 127 16 48 14 76 15 175 7 132 -9 169 -23 204 -73 37 -54 72 -88 91
-88 9 0 33 -14 53 -31 30 -26 40 -30 69 -25 51 10 64 31 43 69 -24 40 -10 54
40 41 50 -12 52 -33 11 -114 -39 -76 -50 -80 -158 -69 -125 14 -171 -11 -84
-45 35 -14 80 -20 157 -21 95 -3 109 -5 125 -24 l17 -21 78 25 c86 27 118 30
197 15 29 -6 132 -14 228 -20 96 -5 179 -13 185 -19 17 -17 -2 -29 -85 -51
-84 -23 -146 -51 -206 -95 -19 -13 -55 -27 -80 -31 -57 -8 -82 -20 -82 -39 0
-20 42 -29 100 -22 60 7 87 0 93 -24 7 -26 44 -24 58 3 7 13 13 44 13 70 1 26
4 48 7 48 3 0 20 -20 37 -44 44 -61 93 -90 137 -82 49 10 60 -18 19 -51 l-29
-23 60 2 60 3 -3 -38 -4 -38 41 21 c42 21 99 29 119 16 7 -4 12 -17 12 -30 0
-70 100 -59 130 14 19 45 56 60 147 60 56 0 85 5 101 16 15 11 60 18 135 24
62 4 133 13 160 20 59 15 72 6 86 -58 25 -121 34 -294 28 -569 l-5 -283 111 0
c127 0 153 5 159 28 3 10 -3 57 -13 107 -51 261 -95 630 -87 731 7 87 33 97
179 72 68 -12 72 -12 89 9 9 12 23 49 29 83 20 98 44 94 106 -20 21 -38 46
-77 55 -85 21 -19 119 -45 171 -45 48 0 112 25 107 42 -2 6 -40 21 -84 33 -43
11 -89 27 -101 33 -32 18 -29 41 7 49 29 5 30 8 24 40 l-7 35 34 -17 c19 -10
63 -39 99 -65 36 -26 76 -53 89 -60 28 -14 99 -6 127 15 17 13 15 14 -28 15
-94 0 -137 42 -57 55 37 6 90 4 244 -10 43 -4 38 -2 -38 20 -93 26 -135 45
-161 71 -26 25 -9 34 67 34 40 0 100 7 132 16 38 10 83 14 122 11 68 -5 83 3
83 45 0 45 26 52 235 56 105 2 194 8 198 12 5 4 -3 19 -17 33 -28 28 -32 47
-15 79 9 16 17 19 45 14 41 -8 73 7 140 67 27 24 62 50 79 58 22 11 31 23 35
49 14 83 69 129 164 139 90 10 165 67 241 185 l19 29 -29 -5 c-17 -3 -111 -22
-210 -42 -99 -20 -189 -36 -201 -36 -11 0 -36 11 -55 25 -68 49 -69 49 -170
19 -105 -31 -178 -36 -226 -15 -50 20 -30 31 58 31 92 0 134 15 189 64 46 41
72 51 101 35 43 -23 83 -29 121 -18 37 10 42 16 39 51 -2 21 54 63 136 102 36
17 59 34 57 41 -3 6 15 34 39 61 24 27 54 68 66 91 20 41 29 113 13 113 -4 0
-27 -20 -51 -44 -68 -69 -126 -90 -246 -90 -80 0 -112 5 -158 23 -76 30 -112
60 -103 88 10 33 33 35 84 8 52 -28 116 -32 191 -12 59 16 73 38 43 70 -13 13
-22 36 -22 54 0 43 56 149 96 181 24 19 39 42 49 77 13 45 46 237 41 242 -1 1
-53 -42 -116 -96 -168 -145 -330 -241 -437 -258 -39 -7 -63 13 -63 50 0 17 5
19 44 13 33 -5 48 -3 60 9 23 24 20 51 -10 74 l-27 21 24 0 c13 -1 44 -5 67
-9 67 -13 80 -6 87 48 10 75 20 91 57 91 18 0 53 -9 77 -20 57 -26 60 -25 29
8 -33 35 -51 70 -42 83 4 7 23 9 50 5 37 -5 45 -2 54 14 8 15 21 20 54 20 38
0 48 5 80 40 44 49 54 83 32 113 -9 12 -28 37 -41 56 -56 77 -57 177 -1 239
46 52 58 76 44 90 -17 17 -37 15 -97 -13 -76 -36 -162 -99 -315 -232 -130
-114 -214 -173 -249 -173 -21 0 -40 44 -31 72 4 15 12 18 29 14 31 -8 57 18
53 52 -2 17 -16 35 -38 50 -44 29 -55 49 -40 67 9 10 24 13 55 8 35 -4 52 0
95 23 28 15 61 41 72 57 l21 29 -32 30 c-35 33 -38 46 -15 55 15 5 44 -3 116
-32 16 -6 17 -2 12 38 -6 39 -4 47 15 59 28 17 27 28 -4 28 -24 0 -65 31 -65
49 0 29 14 41 50 41 47 0 72 27 74 77 1 33 -2 38 -23 41 -36 6 -62 -4 -131
-49 -76 -49 -352 -192 -425 -220 -66 -25 -105 -25 -105 0 0 22 -19 31 -61 31
-38 0 -32 10 38 61 32 24 61 55 69 75 18 42 45 60 114 75 73 15 81 21 105 66
17 31 29 41 75 56 66 22 79 32 73 57 -4 13 1 19 19 22 19 2 23 8 20 34 -2 27
1 33 22 38 56 14 77 128 31 170 -22 20 -23 25 -9 30 8 3 31 6 50 6 67 0 99 39
51 61 -33 15 -93 -3 -154 -45 -155 -109 -595 -326 -661 -326 -25 0 -52 58 -40
86 6 12 28 32 50 45 89 54 122 85 161 156 41 74 58 87 127 95 21 3 25 8 26 38
1 64 4 71 33 101 20 19 40 29 60 29 48 0 45 15 -11 57 l-53 38 56 5 c66 6 90
24 125 92 31 61 31 82 2 73 -41 -12 -172 -87 -228 -130 -95 -73 -318 -148
-477 -162 l-73 -6 0 31 c0 27 -6 35 -41 52 -34 18 -40 25 -35 44 4 16 -3 36
-20 61 -28 42 -22 55 29 55 31 0 97 31 116 54 33 39 -12 89 -109 122 l-55 19
105 6 c190 11 440 65 440 95 0 3 -74 2 -165 -2 -144 -6 -165 -5 -165 8 0 22
19 35 63 43 41 8 107 62 107 87 0 9 -7 21 -15 28 -22 18 -19 37 17 86 20 28
31 55 30 76 -1 44 14 67 54 84 19 8 34 18 34 23 0 6 -15 20 -32 33 l-33 23 44
5 c25 3 46 10 48 16 6 17 -55 100 -83 113 -33 15 -43 6 -76 -59 -22 -44 -31
-50 -113 -85 -22 -9 -73 -42 -112 -72 -62 -47 -75 -54 -88 -43 -13 11 -30 10
-95 -5 -92 -21 -141 -17 -215 19 -82 41 -85 71 -7 81 94 12 124 25 186 85 42
39 72 59 96 64 19 3 51 16 70 28 l35 22 -38 9 c-47 11 -61 36 -55 98 4 35 16
64 44 105 73 105 71 102 50 117 -17 12 -18 18 -8 47 25 70 21 68 -198 -108
-220 -178 -323 -242 -392 -242 -37 0 -68 16 -68 36 0 12 9 13 49 8 39 -5 49
-3 54 10 4 9 33 28 65 42 60 26 71 39 92 107 17 55 74 90 156 95 l64 4 -20 26
c-30 37 -25 53 31 107 67 66 93 109 85 141 -6 21 -3 25 24 30 16 4 30 10 30
13 0 16 -26 31 -52 31 -31 0 -55 -13 -138 -76 -131 -99 -337 -184 -444 -184
-48 0 -56 3 -56 19 0 24 65 108 113 144 21 16 61 39 91 52 29 13 75 45 102 72
62 60 139 161 130 170 -4 4 -28 -1 -54 -11 -188 -74 -269 -97 -399 -116 -84
-12 -103 -7 -103 27 0 23 25 83 36 83 2 0 23 -9 44 -20 47 -24 117 -35 156
-26 l27 7 -7 96 c-7 108 -2 123 50 123 59 0 132 21 158 45 32 30 32 40 1 71
-32 32 -31 34 5 34 17 0 30 5 30 11 0 17 -57 3 -149 -37 -98 -42 -134 -47
-139 -19 -8 35 27 83 71 98 33 11 43 20 49 44 6 23 19 36 52 51 55 27 86 65
86 108 0 47 -16 44 -107 -22 -98 -70 -119 -81 -201 -104 -37 -10 -105 -31
-151 -48 -118 -43 -143 -31 -66 33 54 43 76 84 99 181 24 97 47 134 86 134 24
0 33 7 49 38 25 49 58 79 106 95 43 15 61 36 52 61 -10 25 -34 19 -111 -28
-79 -50 -286 -151 -328 -162 -28 -6 -28 -6 -28 45 0 48 3 53 31 69 27 15 30
20 25 55 -6 35 -5 37 22 37 37 0 110 47 145 93 27 35 36 77 17 77 -16 0 -64
-23 -110 -54 -24 -17 -69 -40 -100 -52 -57 -24 -62 -28 -77 -79 -12 -41 -37
-43 -88 -6 -24 17 -46 31 -49 31 -10 0 -7 -50 5 -72 6 -11 30 -28 54 -39 23
-10 48 -26 56 -35 11 -14 10 -18 -5 -30 -11 -7 -29 -11 -42 -8 -16 4 -27 -1
-40 -22 -40 -58 -72 -84 -103 -84 -97 0 -92 -125 10 -235 23 -25 40 -47 37
-50 -2 -3 -18 -1 -35 4 -36 10 -63 -2 -63 -29 0 -27 -30 -40 -87 -39 -75 2
-96 11 -116 52 -18 39 -89 93 -106 83 -22 -14 48 -160 109 -229 33 -37 41 -53
37 -73 -6 -35 16 -56 109 -101 55 -27 83 -47 99 -73 13 -19 37 -48 54 -64 17
-17 31 -34 31 -39 0 -6 -39 -8 -100 -4 -97 5 -102 6 -138 39 -38 34 -191 115
-227 120 -16 2 -19 -2 -17 -21 6 -39 33 -72 63 -78 37 -7 48 -22 63 -80 12
-47 14 -48 49 -47 21 1 37 -3 37 -8 0 -5 -14 -36 -31 -70 -17 -34 -31 -76 -32
-94 -1 -42 -26 -49 -133 -39 -70 7 -78 10 -107 42 -32 35 -75 63 -98 63 -8 0
-10 -14 -6 -46 13 -116 -45 -171 -215 -204 -32 -6 -58 -16 -58 -21 0 -5 57 -9
132 -9 72 0 171 -5 219 -11 83 -11 89 -10 118 10 46 33 49 6 4 -37 -30 -30
-72 -51 -198 -101 -210 -81 -255 -102 -265 -122 -10 -18 5 -39 29 -39 9 0 31
9 50 21 l33 20 20 -21 c17 -18 27 -20 62 -15 59 10 125 41 132 62 16 52 49 67
124 57 32 -5 54 -16 78 -40 38 -38 41 -61 7 -70 -49 -12 -25 -50 49 -78 53
-20 76 -54 76 -111 l0 -35 -42 6 c-83 12 -124 23 -208 53 -104 37 -252 58
-293 42 -27 -10 -28 -13 -25 -73 l3 -63 40 -6 c22 -3 69 -20 103 -38 35 -18
87 -35 115 -38 38 -5 58 -13 77 -34 22 -24 34 -28 105 -33 109 -8 106 -7 103
-30 -2 -17 -9 -21 -37 -18 -25 2 -39 -4 -58 -24 -24 -27 -25 -27 -128 -20
-134 9 -161 17 -157 43 3 25 -27 48 -111 86 -72 33 -206 120 -313 203 -45 35
-85 64 -88 64 -4 0 1 -11 10 -24 9 -15 14 -40 12 -63 -2 -31 1 -40 19 -48 31
-13 34 -26 21 -91 -10 -48 -9 -57 6 -72 15 -16 21 -15 79 6 109 41 105 41 99
-16 -3 -41 0 -56 18 -82 42 -59 -1 -86 -120 -75 -145 13 -135 16 -134 -32 1
-49 27 -93 55 -93 45 0 76 -29 118 -110 27 -50 48 -80 58 -80 9 0 43 21 75 46
32 25 58 43 58 40 0 -2 -16 -37 -35 -77 -19 -40 -32 -75 -30 -78 3 -3 27 17
54 43 l48 47 9 -43 c7 -32 16 -46 37 -56 31 -15 33 -24 10 -47 -12 -13 -28
-16 -62 -12 -39 4 -90 -5 -141 -27 -12 -5 -16 0 -15 21 0 24 -4 28 -31 31 -19
2 -51 -8 -85 -26 l-56 -29 -54 28 c-100 51 -174 47 -167 -9 3 -23 10 -28 46
-37 39 -8 43 -12 39 -33 -3 -15 1 -26 10 -29 10 -4 -15 -33 -78 -92 -51 -47
-100 -89 -111 -93 -10 -4 -18 -14 -18 -22 0 -22 -167 -172 -222 -200 -59 -29
-83 -23 -93 23 -9 41 10 75 38 67 50 -13 89 71 50 106 -98 88 -110 108 -77
126 9 5 37 7 63 4 73 -7 174 53 201 118 12 28 10 32 -24 71 -21 22 -35 46 -33
52 7 23 64 19 116 -7 28 -14 53 -26 56 -26 2 0 2 26 -1 58 -5 50 -4 59 15 76
28 25 27 36 -4 36 -33 0 -75 42 -75 74 0 34 26 57 55 50 48 -12 95 42 95 109
0 84 -58 72 -226 -47 -65 -47 -130 -88 -144 -91 -14 -4 -66 -33 -117 -65 -112
-72 -171 -102 -244 -125 -61 -19 -92 -16 -83 10 10 25 -15 45 -58 45 -54 0
-48 18 27 77 42 34 68 64 87 103 34 70 55 87 129 101 73 14 123 46 127 79 5
37 40 69 93 84 77 23 89 33 86 68 -2 26 2 33 23 38 22 6 25 11 22 48 -3 36 0
42 16 42 46 0 92 100 78 173 -4 21 -18 48 -32 59 -13 12 -24 25 -24 29 0 4 25
10 57 14 76 9 103 23 103 52 0 16 -8 27 -27 34 -52 19 -126 -11 -218 -89 -95
-82 -375 -244 -610 -354 -141 -66 -141 -66 -165 -26 -41 68 -24 104 84 177 84
57 120 100 156 190 31 75 56 97 123 110 62 11 70 19 55 58 -26 69 33 160 111
170 22 3 41 9 41 13 0 5 -28 33 -62 64 l-63 55 56 -1 c65 -1 89 10 123 55 27
36 66 128 66 157 0 17 -3 18 -27 9 -56 -21 -186 -105 -249 -161 -36 -32 -88
-70 -116 -84 -154 -78 -392 -147 -492 -142 l-61 3 0 34 c0 30 -6 38 -45 61
-42 25 -45 29 -42 64 2 26 -5 51 -23 82 -14 24 -24 48 -21 53 3 4 26 11 52 15
84 11 154 67 154 122 0 29 -75 91 -132 109 -83 27 -80 35 16 35 156 0 546 85
546 118 0 19 -45 20 -180 6 -137 -15 -199 -11 -207 13 -7 21 33 50 77 57 33 5
53 17 82 47 44 46 49 81 17 115 -18 19 -19 26 -9 46 7 12 21 32 31 43 30 33
50 93 44 128 -8 40 22 83 72 103 42 18 42 35 -2 65 -19 13 -35 27 -35 30 0 9
39 19 73 19 33 0 35 16 8 69 -29 57 -75 101 -105 101 -22 0 -31 -11 -63 -77
-38 -77 -38 -78 -100 -101 -44 -17 -87 -45 -153 -103 -85 -73 -120 -94 -120
-69 0 15 -39 12 -125 -10 -92 -24 -135 -19 -223 22 -73 34 -104 70 -80 94 8 9
45 19 82 24 87 11 144 45 208 126 32 42 56 63 65 60 17 -7 65 12 124 50 l44
28 -44 8 c-57 10 -72 25 -78 81 -8 64 19 142 77 228 47 70 62 109 40 109 -18
0 -21 45 -6 88 11 31 12 42 3 42 -14 0 -129 -98 -287 -244 -191 -178 -350
-286 -419 -286 -32 0 -81 34 -81 56 0 16 10 17 63 5 37 -9 67 4 67 29 0 5 29
22 64 39 71 33 100 67 109 126 8 51 33 83 92 120 38 24 59 29 106 30 33 0 59
4 59 8 0 5 -9 20 -20 34 -33 42 -25 66 46 145 78 88 97 120 98 173 1 31 5 40
21 43 33 6 40 20 20 42 -38 42 -88 21 -210 -85 -107 -94 -235 -165 -384 -215
-102 -34 -188 -40 -198 -13 -18 48 133 225 229 267 71 32 106 62 182 160 72
92 114 162 104 171 -4 4 -56 -16 -116 -43 -106 -49 -230 -92 -318 -112 -78
-18 -187 -31 -206 -25 -21 7 -23 40 -8 96 17 60 30 64 88 28 38 -24 66 -32
114 -36 92 -8 103 5 94 112 -3 44 -9 96 -12 116 -9 54 19 79 89 79 69 0 142
25 167 57 28 36 26 79 -5 99 -34 22 -31 31 10 38 19 4 35 12 35 18 0 20 -65 1
-177 -51 -59 -28 -120 -52 -133 -53 -22 -3 -25 1 -28 36 -5 52 34 112 80 121
45 10 58 22 58 55 0 31 24 56 83 85 53 26 91 94 81 143 -4 18 -13 32 -20 32
-7 0 -50 -30 -95 -67 -105 -85 -178 -129 -228 -137 -22 -3 -91 -28 -154 -56
-176 -77 -214 -67 -119 33 73 77 85 100 107 207 27 132 68 215 107 209 30 -4
39 4 67 59 34 67 51 84 112 111 61 27 84 53 70 79 -23 43 -28 42 -178 -60
-123 -84 -327 -190 -357 -186 -17 2 -21 11 -24 48 -2 50 13 87 43 104 31 17
35 28 28 80 -6 46 -5 48 15 42 30 -10 81 17 137 72 53 53 88 113 79 136 -7 19
-10 19 -52 1z m-488 -1981 c35 -35 6 -89 -42 -78 -71 16 -202 58 -196 63 10
11 109 29 166 30 39 1 61 -4 72 -15z m581 -697 c17 -13 17 -15 -3 -35 -26 -26
-64 -28 -86 -6 -19 19 -20 26 -4 42 16 16 70 15 93 -1z m662 -445 c-24 -27
-174 -101 -237 -117 -62 -17 -124 -20 -116 -6 4 5 24 12 46 16 46 8 91 40 84
60 -10 26 99 62 195 64 42 1 43 0 28 -17z m-2153 -313 c41 -33 33 -68 -24 -96
-24 -13 -61 -23 -82 -23 -33 0 -38 3 -38 23 0 25 33 86 58 105 23 18 56 15 86
-9z m178 -106 c21 -18 24 -53 6 -71 -17 -17 -74 -15 -92 4 -14 14 -14 18 -1
44 22 42 56 51 87 23z m278 -67 c0 -49 -90 -88 -98 -44 -4 23 45 68 74 68 19
0 24 -5 24 -24z m1744 -169 c12 -9 17 -23 14 -42 -4 -37 -24 -39 -51 -3 -32
43 -6 76 37 45z m-1805 -293 c24 -31 27 -52 7 -60 -28 -11 -56 15 -56 51 0 43
20 46 49 9z m4505 10 c18 -18 19 -24 7 -43 -7 -10 -22 -12 -58 -8 -56 7 -157
36 -150 43 7 8 95 21 144 23 26 1 48 -5 57 -15z m-4729 -19 c35 -34 33 -78 -4
-116 -36 -35 -64 -37 -96 -4 -31 30 -33 82 -4 119 27 34 71 35 104 1z m-3207
-447 c3 -26 1 -28 -33 -28 -48 0 -168 31 -158 41 13 12 52 17 123 15 63 -1 65
-2 68 -28z m8438 -60 c9 -14 -23 -38 -52 -38 -25 0 -49 24 -39 40 8 14 82 13
91 -2z m-5696 -155 c0 -9 -31 -31 -72 -53 -49 -27 -85 -26 -93 1 -9 28 14 50
62 58 40 7 103 3 103 -6z m2723 -54 c20 -27 10 -58 -19 -65 -30 -8 -54 11 -54
40 0 46 48 62 73 25z m3520 -128 c-42 -35 -174 -83 -238 -87 l-60 -4 46 14
c57 16 69 23 69 40 0 31 66 52 165 54 l40 1 -22 -18z m-6710 -63 c9 -11 17
-37 17 -57 0 -49 14 -61 76 -61 71 0 111 -16 119 -47 6 -25 14 -26 56 -9 10 5
28 -3 47 -18 52 -44 142 -25 206 43 35 36 46 39 46 10 0 -33 -17 -56 -65 -89
-45 -31 -55 -56 -33 -78 17 -17 39 -15 68 8 14 11 40 20 59 20 37 0 105 -36
95 -51 -3 -5 -30 -9 -60 -9 -30 0 -54 -4 -54 -9 0 -5 14 -21 31 -34 70 -55 8
-58 -231 -11 -261 52 -393 104 -499 200 -121 110 -116 193 13 215 55 9 87 2
109 -23z m-1814 -7 c10 -7 8 -12 -10 -25 -13 -9 -28 -16 -34 -16 -20 0 -48 27
-41 38 8 14 65 16 85 3z m6715 -172 c20 -29 11 -45 -35 -63 -55 -22 -99 -21
-99 2 0 18 26 61 44 74 23 16 75 8 90 -13z m149 -80 c18 -29 1 -49 -43 -49
-48 0 -62 21 -34 51 21 23 62 22 77 -2z m227 -38 c0 -22 -35 -51 -62 -51 -26
0 -23 36 4 54 31 22 58 20 58 -3z m-6560 -16 c0 -9 -115 -63 -169 -79 -30 -9
-71 -16 -90 -15 -39 1 -37 3 27 19 30 8 46 18 52 35 6 15 22 28 42 34 35 10
138 14 138 6z m8049 -124 c7 -13 6 -23 -3 -36 -12 -16 -14 -16 -34 10 -12 15
-19 31 -16 36 9 16 43 10 53 -10z m-9771 -104 c18 -14 15 -45 -7 -56 -10 -6
-37 -14 -59 -20 -55 -12 -68 3 -42 47 29 48 70 59 108 29z m137 -73 c28 -28
15 -49 -30 -49 -29 0 -41 4 -43 16 -3 19 23 49 43 49 7 0 21 -7 30 -16z m7908
-42 c23 -20 22 -51 -5 -79 -25 -27 -64 -30 -90 -6 -23 21 -23 65 0 85 33 29
60 29 95 0z m187 9 c16 -30 12 -41 -14 -41 -16 0 -27 7 -31 20 -12 39 25 57
45 21z m-7875 -2 c9 -13 -20 -45 -46 -52 -31 -8 -37 22 -10 45 26 20 47 23 56
7z m1409 -141 c18 -29 -8 -46 -34 -23 -11 10 -20 24 -20 32 0 20 40 13 54 -9z
m5956 -138 c0 -23 -20 -70 -30 -70 -4 0 -12 12 -19 27 -11 24 -10 29 11 45 30
23 38 22 38 -2z m-4323 -21 c22 -8 24 -12 13 -19 -20 -13 -71 -12 -90 0 -13 9
-13 11 0 20 19 13 42 13 77 -1z m4170 -45 c-5 -5 -77 35 -77 42 0 3 18 -5 41
-16 23 -12 39 -24 36 -26z m-7437 6 c11 -11 20 -28 20 -37 0 -24 -40 -63 -63
-63 -29 0 -57 29 -57 58 0 56 61 81 100 42z m180 5 c13 -16 7 -45 -9 -45 -17
0 -40 30 -35 45 8 19 28 19 44 0z m7068 -101 c2 -1 -13 -14 -35 -27 -27 -17
-42 -22 -50 -15 -33 27 -2 61 47 52 19 -4 37 -8 38 -10z m-4463 -102 c93 -43
105 -46 173 -44 61 1 76 -2 92 -18 11 -11 20 -28 20 -39 0 -52 -91 -107 -158
-95 -41 7 -242 82 -256 95 -6 6 -2 9 10 9 23 0 44 18 44 37 0 22 -50 27 -103
10 -52 -17 -70 -13 -109 21 -37 31 -14 56 65 71 65 13 114 3 222 -47z m4660
38 c-3 -5 -18 -9 -33 -9 l-27 1 30 8 c17 4 31 8 33 9 2 0 0 -3 -3 -9z m-125
-8 c0 -4 -17 -6 -37 -4 -65 6 -70 10 -15 11 28 0 52 -3 52 -7z m2508 -54 c2
-19 -2 -28 -18 -33 -37 -12 -64 27 -38 53 21 21 53 10 56 -20z m-7604 -23 c12
-9 33 -12 65 -9 56 7 75 -5 101 -63 14 -31 16 -44 7 -51 -58 -43 -439 -212
-479 -212 -9 0 -25 14 -33 31 -15 28 -15 33 -1 55 9 13 34 33 57 44 61 32 117
88 144 145 33 70 92 95 139 60z m5052 -203 c6 -4 13 -15 17 -25 5 -14 14 -17
40 -12 24 5 37 2 46 -9 8 -9 20 -16 28 -16 20 0 6 -17 -58 -71 l-49 -41 -76
23 -76 23 4 52 c3 29 10 60 17 68 14 17 87 22 107 8z m317 -22 c-7 -25 -23
-37 -23 -16 0 23 11 46 20 41 5 -3 6 -14 3 -25z m-7973 1 c0 -13 -97 -52 -114
-45 -19 7 -21 25 -4 42 14 14 118 17 118 3z m2986 -54 c-16 -54 -11 -61 43
-52 53 9 95 -11 175 -83 73 -66 157 -112 206 -112 36 0 100 -25 100 -39 0 -73
-345 -130 -452 -75 -47 24 -29 64 28 64 40 0 64 30 64 77 0 31 -2 33 -33 33
-23 0 -61 -17 -118 -51 l-84 -52 -45 13 c-25 8 -92 23 -150 35 -103 21 -104
22 -61 29 60 9 79 21 95 60 12 29 23 37 73 53 46 14 59 23 61 41 2 13 14 27
27 32 16 6 22 15 19 27 -3 12 6 25 28 39 18 12 34 18 36 15 1 -4 -4 -28 -12
-54z m-796 18 c10 -12 10 -18 0 -30 -27 -32 -71 -8 -56 30 3 8 14 15 24 15 11
0 25 -7 32 -15z m1167 -108 c-2 -7 -16 -13 -30 -15 -35 -4 -55 34 -37 69 l13
23 29 -33 c16 -18 27 -38 25 -44z m4698 41 c34 -16 31 -28 -7 -29 -18 0 -42
-4 -52 -8 -18 -7 -17 -9 12 -26 18 -11 32 -23 32 -27 0 -9 -45 -10 -87 -2 -29
6 -30 8 -22 42 4 20 16 42 25 49 22 16 65 17 99 1z m-8425 -68 c4 -8 12 -28
17 -45 8 -28 12 -30 72 -35 47 -4 66 -10 77 -25 10 -14 24 -19 47 -17 21 2 38
-3 46 -12 26 -31 105 -15 153 31 15 15 31 24 34 20 15 -14 -8 -55 -41 -73 -36
-19 -47 -50 -21 -60 8 -3 28 2 45 10 36 19 61 20 96 4 36 -16 31 -28 -14 -28
-48 0 -59 -12 -26 -30 66 -35 -11 -40 -184 -10 -153 26 -224 45 -296 79 -84
40 -143 86 -163 127 l-17 36 29 24 c24 21 37 24 84 22 37 -2 57 -8 62 -18z
m7690 -104 c14 0 31 2 38 5 7 2 20 -8 29 -23 20 -32 12 -45 -32 -53 -38 -7
-128 46 -119 70 4 11 13 13 33 8 14 -4 37 -7 51 -7z m-4691 -120 l63 -63 -66
-27 c-78 -31 -128 -35 -124 -9 2 13 -8 19 -42 26 l-45 9 30 22 c16 11 48 40
70 62 22 23 42 42 45 43 3 0 34 -28 69 -63z m5211 -206 c11 -7 2 -10 -32 -10
-27 0 -48 5 -48 10 0 13 60 13 80 0z m3518 -20 c31 -19 72 -73 72 -97 0 -31
-188 -48 -264 -23 -56 18 -48 42 27 77 34 17 68 38 76 47 18 21 49 20 89 -4z
m-8305 -154 c-15 -13 -30 -22 -33 -19 -6 6 38 43 52 43 5 0 -4 -11 -19 -24z
m4520 -32 c43 7 87 -13 87 -39 0 -21 -34 -18 -114 10 -77 27 -113 51 -51 34
21 -6 56 -8 78 -5z m-7613 -35 c0 -5 -18 -9 -40 -9 -40 0 -56 15 -22 22 24 5
62 -3 62 -13z m2930 -4 c18 -21 4 -33 -62 -56 -46 -15 -53 -16 -56 -3 -5 22
16 43 38 37 12 -3 23 3 32 16 15 25 31 27 48 6z m-3321 -154 c54 -24 86 -32
120 -31 70 4 79 2 91 -20 15 -29 -2 -55 -50 -74 -48 -19 -75 -14 -230 39 -179
63 -218 93 -147 114 56 18 136 7 216 -28z m7706 0 c-5 -16 -15 -21 -38 -21
-18 0 -39 5 -47 10 -11 7 -8 10 16 10 16 0 39 6 50 14 23 17 28 14 19 -13z
m-4061 -90 c18 -7 16 -9 -12 -19 -25 -9 -32 -8 -32 2 0 25 12 30 44 17z m421
-62 c24 -38 -39 -89 -72 -57 -13 13 -11 18 17 42 34 28 45 32 55 15z m-197
-52 c4 -18 -23 -57 -40 -57 -10 0 -11 64 -1 74 12 12 38 1 41 -17z m4264 -49
c-9 -9 -12 -7 -12 12 0 19 3 21 12 12 9 -9 9 -15 0 -24z m-8008 -4 c24 -23 20
-46 -6 -42 -17 2 -24 11 -26 31 -4 30 9 35 32 11z m7830 -18 l44 -23 -51 -7
c-29 -3 -70 -6 -92 -6 l-40 1 33 29 c39 36 48 37 106 6z m-611 -110 c16 -23
15 -24 -11 -31 l-27 -7 25 -13 c18 -10 20 -14 8 -15 -23 0 -48 27 -48 54 0 43
29 49 53 12z m-3973 -14 c0 -43 -88 -58 -109 -18 -19 34 -10 41 53 41 52 0 56
-2 56 -23z m3948 -114 c32 -27 5 -68 -46 -68 -43 0 -72 16 -72 39 0 43 76 62
118 29z m-3413 -47 c95 -11 168 -34 211 -67 46 -36 66 -31 118 29 43 48 46 50
39 22 -4 -16 -7 -43 -8 -59 0 -27 6 -33 55 -56 24 -11 23 -37 -2 -44 -38 -10
-356 -29 -383 -22 -21 5 -26 12 -24 34 5 66 2 67 -52 17 l-50 -47 -62 7 c-76
8 -134 22 -142 35 -3 5 11 14 32 20 52 14 67 25 60 45 -6 13 6 40 30 74 2 4
62 17 88 20 6 0 46 -3 90 -8z m1535 -60 c0 -17 -63 -62 -83 -59 -33 5 -31 26
5 48 34 21 78 27 78 11z m6100 -61 c0 -24 -148 -70 -224 -70 -41 0 -69 20 -60
43 8 21 24 25 144 35 99 8 140 5 140 -8z m-6760 -20 c16 -30 -4 -58 -45 -66
-62 -11 -86 28 -39 65 34 27 70 27 84 1z m-4820 -15 c0 -18 -31 -35 -65 -35
-33 0 -24 17 19 36 40 17 46 17 46 -1z m8290 -144 c0 -26 -22 -41 -48 -34 -28
7 -28 18 0 37 30 21 48 20 48 -3z m-166 -20 c3 -5 -2 -18 -12 -29 -14 -17 -21
-19 -42 -10 l-25 10 28 10 c15 5 27 14 27 19 0 12 17 12 24 0z m-8146 -36 c37
-31 40 -31 93 0 45 25 99 33 99 15 0 -17 -145 -82 -184 -83 -19 0 -52 7 -75
17 l-40 19 -50 -32 -50 -32 -47 20 c-61 27 -49 42 54 69 142 38 163 39 200 7z
m3757 -86 c-22 -41 -84 -109 -101 -109 -20 0 -17 13 7 28 13 9 18 19 14 32 -5
14 4 27 36 50 53 38 64 38 44 -1z m-3327 -11 c-3 -24 -28 -34 -55 -24 -14 6
-14 9 2 26 25 28 57 27 53 -2z m10668 -14 c12 -18 14 -28 6 -36 -23 -23 -61
14 -48 47 8 22 23 18 42 -11z m-10837 7 c16 -10 8 -39 -14 -47 -16 -6 -85 32
-85 47 0 12 80 12 99 0z m3246 -73 c-4 -18 -11 -40 -15 -48 -9 -17 -123 -57
-191 -66 -45 -6 -129 10 -129 25 0 4 48 11 106 14 112 6 152 21 161 58 5 18
46 48 66 49 5 0 5 -15 2 -32z m4434 21 c17 -6 31 -15 31 -20 0 -13 -78 -11
-103 3 l-22 12 25 7 c36 10 34 10 69 -2z m-162 -41 c-3 -8 -6 -5 -6 6 -1 11 2
17 5 13 3 -3 4 -12 1 -19z m3277 2 c29 -11 35 -44 10 -54 -28 -11 -71 -6 -84
9 -17 21 -3 37 47 54 1 1 13 -3 27 -9z m-8002 -47 c26 -23 23 -43 -7 -43 -27
0 -41 20 -31 45 7 19 15 19 38 -2z m5179 -3 c30 -6 76 -21 102 -35 27 -14 56
-25 65 -25 9 0 33 16 53 36 l37 36 -5 -46 c-5 -41 -3 -46 14 -46 22 0 50 -26
39 -37 -13 -13 -115 -22 -271 -22 -259 -1 -365 18 -365 65 0 8 12 16 28 20 57
12 68 17 89 40 19 21 31 24 91 24 38 0 94 -5 123 -10z m-8137 -53 c19 -11 17
-12 -21 -15 -44 -3 -83 11 -83 30 0 13 73 3 104 -15z m9386 18 c0 -15 -48 -45
-72 -45 -36 0 -36 15 0 34 25 14 72 21 72 11z m-6445 -70 c0 -27 -29 -41 -62
-29 -36 12 -38 46 -3 54 34 9 65 -3 65 -25z m5879 2 c20 -33 -46 -62 -84 -37
-13 9 -11 14 14 36 31 28 53 28 70 1z m-8323 -41 c-13 -34 -5 -53 25 -60 37
-10 29 -34 -13 -43 -21 -4 -132 -7 -248 -7 -213 0 -280 9 -305 39 -18 21 4 45
41 45 19 0 37 9 51 25 20 23 29 25 99 25 98 0 172 -15 226 -47 l42 -24 43 40
c24 21 44 38 46 37 1 -2 -2 -15 -7 -30z m932 -13 c13 -12 -26 -43 -55 -43 -38
0 -36 18 5 35 37 17 41 17 50 8z m-539 -49 c44 -17 -3 -72 -50 -60 -34 9 -29
31 11 54 24 14 20 13 39 6z m7026 -83 c0 -37 -90 -134 -108 -117 -12 12 12 60
48 96 44 44 60 50 60 21z m-3126 -93 c-15 -59 -9 -90 21 -114 l28 -22 -49 -8
c-27 -5 -123 -9 -214 -9 -146 0 -172 3 -225 23 -32 12 -66 28 -74 36 -12 13
-8 16 29 26 45 12 90 49 90 75 0 22 27 19 63 -7 45 -32 138 -30 227 5 36 14
75 26 88 27 22 0 23 -3 16 -32z m-4744 -16 c0 -33 -81 -124 -97 -108 -12 11 8
54 42 89 40 41 55 46 55 19z m8608 -352 c28 0 79 9 114 20 88 28 100 27 91 -7
-11 -43 -6 -66 18 -84 22 -16 21 -17 -55 -24 -42 -4 -130 -5 -194 -3 -95 4
-126 9 -167 28 l-50 23 35 11 c47 15 65 27 79 54 l12 23 33 -21 c22 -13 50
-20 84 -20z m-7715 -81 c-5 -36 -3 -44 17 -59 23 -17 21 -18 -85 -25 -60 -4
-140 -5 -179 -2 -70 6 -166 33 -166 46 0 4 19 13 42 21 22 8 46 24 52 35 6 11
12 22 13 24 1 2 23 -7 48 -19 51 -25 85 -23 190 9 33 10 63 16 67 15 3 -2 4
-23 1 -45z"/>
<path d="M5873 10101 c-70 -19 -89 -32 -80 -55 14 -37 168 -9 205 37 33 39
-18 46 -125 18z"/>
<path d="M5074 8785 c-8 -20 55 -153 80 -171 26 -18 52 -18 59 1 10 24 -21
108 -53 148 -33 39 -76 50 -86 22z"/>
<path d="M10208 8680 c-9 -14 -19 -35 -22 -47 -7 -23 17 -93 32 -93 14 0 24
99 14 135 l-8 30 -16 -25z"/>
<path d="M10143 8393 c-23 -9 -13 -49 20 -81 59 -57 118 -32 83 36 -20 39 -68
60 -103 45z"/>
<path d="M10204 8164 c-16 -23 -22 -25 -61 -19 -25 4 -43 2 -43 -3 0 -19 94
-113 132 -133 28 -14 54 -19 91 -17 l52 3 -59 20 c-39 13 -67 30 -80 48 l-21
28 23 42 c27 51 27 57 2 57 -11 0 -27 -12 -36 -26z"/>
<path d="M2246 8056 c-9 -19 -16 -39 -16 -46 0 -21 31 -71 40 -65 13 8 13 132
1 139 -5 3 -16 -9 -25 -28z"/>
<path d="M10150 7931 c0 -5 18 -22 40 -38 52 -37 50 -45 -6 -26 -25 8 -48 12
-52 9 -3 -4 15 -28 41 -54 45 -45 48 -46 71 -32 33 21 136 117 136 128 0 10
-103 22 -182 22 -27 0 -48 -4 -48 -9z"/>
<path d="M2193 7803 c-40 -16 28 -107 76 -101 20 2 27 9 29 30 6 50 -56 91
-105 71z"/>
<path d="M9890 7611 c-47 -12 -66 -22 -68 -35 -4 -17 2 -18 60 -14 70 4 123
25 123 48 0 21 -38 21 -115 1z"/>
<path d="M2255 7594 c-21 -23 -29 -25 -66 -19 -47 8 -47 6 7 -62 43 -53 105
-83 170 -82 l49 0 -55 20 c-86 30 -110 71 -69 123 36 45 4 64 -36 20z"/>
<path d="M2200 7371 c0 -6 3 -11 8 -11 4 0 23 -14 42 -30 l35 -29 -49 14 c-27
8 -52 13 -55 10 -3 -3 16 -27 41 -52 l47 -46 33 25 c70 54 123 106 115 115
-13 13 -217 17 -217 4z"/>
<path d="M1950 7076 c-38 -8 -56 -17 -58 -29 -8 -39 163 -10 176 31 5 15 -40
14 -118 -2z"/>
<path d="M9222 6628 c-23 -23 52 -148 88 -148 29 0 34 18 16 64 -24 63 -80
108 -104 84z"/>
<path d="M1320 6155 c0 -44 78 -144 101 -129 27 16 -10 112 -51 134 -27 15
-50 12 -50 -5z"/>
<path d="M4330 1270 c-13 -9 -13 -11 0 -20 19 -12 70 -13 90 0 11 7 9 11 -13
19 -35 14 -58 14 -77 1z"/>
<path d="M8580 950 c0 -5 21 -10 48 -10 34 0 43 3 32 10 -20 13 -80 13 -80 0z"/>
<path d="M733 893 c-27 -10 -11 -23 27 -23 22 0 40 5 40 10 0 6 -6 10 -14 10
-8 0 -20 2 -28 4 -7 3 -19 2 -25 -1z"/>
</g>
</svg>
